<svg id="Layer_1" data-name="Layer 1" xmlns="http://www.w3.org/2000/svg" viewBox="0 0 512 512"><path d="M319.93,322.1c-20.63,19.28-43.95,28.92-71.51,28-42.88-1.47-80.58-33.34-88.63-75.38C148.41,215.33,193.88,160.82,254,161.75c49.4.76,90.56,41,92.11,90.24.32,9.95,0,19.92.21,29.88.5,21,14.53,36.5,34,37.89,18.72,1.33,33.89-11.23,38-31.48,18.07-88.36-43.75-180-132.82-197C190.67,73.29,102.36,134.51,86,229.61c-16,93,52,183.37,145.77,194.31,44.55,5.2,84.58-5.65,121-31.31,12.86-9.07,27.83-3.86,30.83,10.6,1.74,8.4-1.94,14.71-8.65,19.57-34.34,24.87-72.51,38.57-115,39.74-60.9,1.69-113.82-18.24-155.59-62.41C48,340.45,30.93,269.34,56.8,191.51,82.44,114.36,138.23,67.6,218.25,53.27c109.34-19.58,216,56.3,237,166.11,5.06,26.55,5.27,53.08-.6,79.31-6.64,29.69-25.18,49.38-55.06,56.22-30.12,6.89-55.35-2.53-74.87-26.66C323.2,326.44,321.83,324.57,319.93,322.1ZM253.09,200.29c-31-.16-56.62,25.18-56.65,56.13,0,30.69,24.95,56.11,55.48,56.44,31.1.33,56.9-24.83,57.09-55.7C309.2,226,284.07,200.45,253.09,200.29Z" style="fill:#fff"/></svg>