<svg width="70" height="70" viewBox="0 0 70 70" fill="none" xmlns="http://www.w3.org/2000/svg">
<path fill-rule="evenodd" clip-rule="evenodd" d="M31.3637 0.171286C26.5896 0.651497 21.1261 2.48199 16.9586 4.99731C13.7949 6.90674 10.4877 9.76143 8.00331 12.7274C4.50735 16.9008 1.77325 22.5764 0.700068 27.8878C0.16567 30.5327 0 32.2155 0 35.0028C0 40.5393 1.08913 45.2751 3.50488 50.2439C10.6345 64.9083 26.7895 72.7045 42.6716 69.1451C45.9284 68.4153 49.4937 67.0384 52.2576 65.443L53.7529 64.58L61.762 66.8555C66.1669 68.107 69.8122 69.0898 69.8628 69.0395C69.9131 68.989 68.8198 65.3943 67.4329 61.0511L64.9114 53.1544L65.3877 52.3811C66.7013 50.2478 68.4332 45.8402 69.1144 42.8969C70.0234 38.9683 70.2562 33.9636 69.703 30.2351C68.3101 20.8458 63.5637 12.7995 56.023 7.04446C49.1855 1.82608 40.0963 -0.70738 31.3637 0.171286ZM38.8257 4.91024C45.5295 5.79453 51.6408 8.78397 56.3844 13.4996C60.9882 18.0763 63.8958 23.7635 65.0205 30.3914C65.3864 32.548 65.3859 37.4619 65.0197 39.6142C64.294 43.8781 62.9134 47.5466 60.6807 51.1436C60.2589 51.8232 59.914 52.4698 59.914 52.581C59.914 52.6921 60.5838 54.8815 61.4027 57.4462C62.2213 60.011 62.8726 62.1596 62.8497 62.2207C62.8269 62.2818 60.5842 61.6987 57.866 60.9248L52.9241 59.5178L51.452 60.4859C44.8083 64.8545 36.2977 66.3695 28.3255 64.6027C25.8891 64.0627 24.2476 63.4728 21.6644 62.2086C18.0846 60.4566 15.7796 58.7659 12.9773 55.8366C8.62453 51.2864 5.87119 45.6422 4.93677 39.3544C4.61216 37.1692 4.61216 32.8364 4.93677 30.6512C5.65687 25.8061 7.53962 21.1796 10.4338 17.144C11.5259 15.6213 14.1974 12.7979 15.7314 11.5453C18.2642 9.47755 22.1265 7.32161 25.1967 6.26208C26.8374 5.6959 29.6795 5.04936 31.3637 4.85912C33.3644 4.6334 36.9103 4.65763 38.8257 4.91024Z" fill="#262626"/>
</svg>
