<svg width="80" height="70" viewBox="0 0 80 70" fill="none" xmlns="http://www.w3.org/2000/svg">
<path fill-rule="evenodd" clip-rule="evenodd" d="M21.0184 0.053073C10.6152 1.36173 2.602 8.62095 0.366651 18.7616C0.0108163 20.3757 -0.122661 24.947 0.131574 26.8093C0.35613 28.4542 1.33899 32.1544 1.94671 33.6425C4.31083 39.4312 9.21839 45.6616 16.9356 52.6715C23.2698 58.4252 31.6807 64.7759 39.3401 69.5881L39.9959 70L42.8733 68.1042C52.7426 61.602 60.6889 55.2128 67.4245 48.3636C74.5987 41.0685 77.8849 35.6696 79.4433 28.6182C81.1322 20.9761 78.9285 13.0636 73.5122 7.32106C70.2368 3.8485 65.9071 1.45106 60.9994 0.392541C58.696 -0.104279 53.9992 -0.103026 51.6886 0.395205C47.7082 1.25328 44.0263 3.05202 40.9693 5.63188L39.9566 6.4865L38.8494 5.55649C35.753 2.95563 31.9313 1.13228 27.9278 0.345836C26.6321 0.0913135 22.2051 -0.0962864 21.0184 0.053073ZM26.9401 4.90169C30.3208 5.51135 33.7115 7.16967 36.2135 9.43717C36.7546 9.92757 37.7379 10.9743 38.3989 11.7633C39.0598 12.5522 39.6846 13.2909 39.7875 13.4048C39.9375 13.5711 40.2603 13.2693 41.4272 11.8719C43.5178 9.36884 45.3723 7.86412 47.9494 6.58022C51.1103 5.0056 54.6895 4.32024 57.9987 4.6561C62.6556 5.12894 66.4825 6.91875 69.7095 10.1333C73.4074 13.8173 75.352 18.432 75.3513 23.523C75.3509 27.2412 74.0307 31.8593 71.9858 35.2961C67.8516 42.2444 58.9421 50.8835 46.7717 59.7454C43.8708 61.8576 40.1633 64.3687 39.9455 64.3687C39.8469 64.3687 38.6748 63.6166 37.3409 62.6974C21.5061 51.7844 10.5722 41.1692 6.72347 32.9725C5.99547 31.4218 5.09206 28.3674 4.74533 26.2844C4.08564 22.3216 5.03945 17.49 7.18467 13.9278C10.4627 8.48428 15.551 5.3366 22.2747 4.59341C23.1702 4.49452 25.556 4.65203 26.9401 4.90169Z" fill="#262626"/>
</svg>
