<svg width="30" height="30" viewBox="0 0 30 30" fill="none" xmlns="http://www.w3.org/2000/svg">
<path d="M12.1032 26.1972C12.8285 25.5713 13.6552 25.5281 14.5859 25.5631C22.2123 25.886 27.6675 18.1584 24.934 10.9651C22.7578 5.24588 16.3562 2.44956 10.7185 4.75731C5.35911 6.9537 2.72197 13.153 4.82329 18.5899C5.51598 20.4001 6.6193 21.9042 8.11548 23.1222C8.35619 23.3187 8.47154 23.5185 8.4761 23.8316C8.4768 24.3245 8.51968 24.8227 8.56991 25.3167C8.70055 26.662 10.023 27.3588 11.1959 26.7112C11.4981 26.5564 11.8022 26.371 12.1032 26.1972ZM11.8482 24.5685C11.2902 24.8906 10.9041 25.1037 10.5266 25.3315C10.2225 25.5169 10.0911 25.425 10.0695 25.0823C10.0329 24.4424 9.96994 23.8078 9.95655 23.1742C9.94598 22.7659 9.77629 22.489 9.45307 22.2513C8.11563 21.2573 7.10071 20.0081 6.41444 18.4803C4.34468 13.8442 6.51955 8.21757 11.1474 6.24622C16.001 4.17413 21.5475 6.50699 23.4825 11.4184C25.9675 17.6895 21.0373 24.5122 14.3545 24.0094C13.3298 23.9301 12.4529 24.022 11.8482 24.5685Z" fill="#262626"/>
<path d="M13.2277 15.529C13.0825 15.6137 12.9286 15.6816 12.8005 15.7748C11.9631 16.4022 11.1257 17.038 10.2883 17.6739C10.0405 17.8604 9.79272 17.996 9.52784 17.7586C9.24586 17.5043 9.36549 17.233 9.55347 16.9702C10.6728 15.4018 11.7751 13.8249 12.8945 12.2565C13.2021 11.8241 13.4242 11.7902 13.8515 12.1039C14.5351 12.6125 15.2272 13.1043 15.9022 13.6299C16.2355 13.8927 16.5089 13.9097 16.8507 13.6553C17.6881 13.0449 18.5425 12.4599 19.3885 11.8665C19.6277 11.6969 19.867 11.5952 20.1148 11.8241C20.3626 12.0445 20.2942 12.2989 20.149 12.5532C19.2347 14.1131 18.3289 15.6816 17.4146 17.2415C17.1754 17.6569 16.9618 17.6993 16.5345 17.4534C15.5775 16.8939 14.6291 16.3174 13.6806 15.7579C13.5524 15.6731 13.4072 15.6137 13.2277 15.529Z" fill="#262626"/>
</svg>
