<svg width="74" height="66" viewBox="0 0 74 66" fill="none" xmlns="http://www.w3.org/2000/svg">
<path fill-rule="evenodd" clip-rule="evenodd" d="M1.37892 0.186405C0.375913 0.618878 -0.216378 1.85082 0.0738207 2.90123C0.162942 3.22437 0.317873 3.58964 0.417777 3.71323C0.517682 3.83682 6.8104 9.19895 14.4014 15.6293L28.2034 27.3208L31.4299 45.7139C33.2045 55.8301 34.7443 64.3216 34.8518 64.5841C35.4703 66.0947 37.4922 66.4879 38.6217 65.3172C38.8483 65.0822 40.7062 61.9296 42.7503 58.3113C44.7946 54.693 52.6613 40.772 60.232 27.3757C73.0501 4.69408 73.9971 2.96748 74 2.27405C74.0033 1.46926 73.705 0.937476 72.9296 0.365596L72.4916 0.0426129L37.1799 0.00909198C7.87049 -0.0187893 1.78504 0.0112855 1.37892 0.186405ZM62.6037 4.85166C62.4293 4.94987 55.1883 9.11373 46.5124 14.1043C32.9072 21.9308 30.6977 23.1534 30.4426 22.9959C30.2269 22.863 9.89618 5.72522 8.85352 4.79747C8.76995 4.72306 20.7753 4.66558 35.8119 4.66808C56.2002 4.67169 62.8422 4.71727 62.6037 4.85166ZM52.0581 32.2646C37.6473 57.788 38.2208 56.7848 38.156 56.5769C38.0283 56.1678 33.0271 27.4595 33.0643 27.35C33.1172 27.195 65.1155 8.75269 65.2009 8.82788C65.2339 8.85685 59.3197 19.4033 52.0581 32.2646Z" fill="#262626"/>
</svg>
