<svg width="55" height="72" viewBox="0 0 55 72" fill="none" xmlns="http://www.w3.org/2000/svg">
<path fill-rule="evenodd" clip-rule="evenodd" d="M0 36C0 61.5869 0.0485944 72 0.168126 72C0.260626 72 6.39531 67.8746 13.8009 62.8325C21.2066 57.7903 27.3711 53.6633 27.5 53.6613C27.6289 53.6594 33.8008 57.7846 41.2155 62.8289C48.63 67.873 54.7648 72 54.8483 72C54.9459 72 55 59.1843 55 36V0H27.5H0V36ZM50.3125 34.0347V63.343L48.8672 62.366C48.0722 61.8286 42.9922 58.374 37.5781 54.6891C32.1641 51.0042 27.6289 47.9915 27.5 47.9942C27.3711 47.9971 22.2655 51.4041 16.1542 55.5656C10.043 59.7271 4.96297 63.1818 4.86516 63.2426C4.73266 63.3252 4.6875 55.9021 4.6875 34.0399V4.72648H27.5H50.3125V34.0347Z" fill="#262626"/>
</svg>
