<svg id="Layer_1" data-name="Layer 1" xmlns="http://www.w3.org/2000/svg" viewBox="0 0 512 512"><path d="M95.19,269.56q0-83.09,0-166.17C95.2,76,112.82,54.86,139.73,50a49.58,49.58,0,0,1,8.71-.45q107.58,0,215.14,0c30.14,0,53.26,22.89,53.28,53q.09,167.48,0,335c0,15.38-10.18,25.92-24.54,24.93a28.32,28.32,0,0,1-11.42-3.79q-62.39-35-124.55-70.49c-3-1.72-5.16-1.8-8.21,0-39,23.55-78.13,46.8-117,70.46-15.28,9.3-30.91.7-34.51-11.67a37.73,37.73,0,0,1-1.37-10.31Q95.12,353.08,95.19,269.56Z" style="fill:#fff"/></svg>