<svg id="Layer_1" data-name="Layer 1" xmlns="http://www.w3.org/2000/svg" viewBox="0 0 512 512"><path d="M260,492.5C131.8,492.5,27.5,388.2,27.5,260S131.8,27.5,260,27.5,492.5,131.8,492.5,260,388.2,492.5,260,492.5Zm0-447.78C141.29,44.72,44.72,141.29,44.72,260S141.29,475.28,260,475.28,475.28,378.71,475.28,260,378.71,44.72,260,44.72Z" style="fill:#fff"/><ellipse cx="339.15" cy="195.69" rx="42.05" ry="44.52" style="fill:#fff"/><ellipse cx="175.9" cy="195.69" rx="42.05" ry="44.52" style="fill:#fff"/><path d="M262.7,266.59a454.4,454.4,0,0,1,71.54,5.23c47.08,7.22,22,62.67-2.45,83-19.92,16.55-46.41,23.87-72.31,23.82-25.09,0-50.59-6.89-70.61-22s-33.94-39-34.32-64.08c-.07-4.45.54-9.44,4-12.23,1.9-1.52,4.35-2.11,6.72-2.64A456.08,456.08,0,0,1,262.7,266.59Z" style="fill:#fff"/></svg>