<svg id="Layer_1" data-name="Layer 1" xmlns="http://www.w3.org/2000/svg" viewBox="0 0 512 512"><path d="M378.78,285.66c-2.22-1.36-4.73-2.29-6.83-3.81-13.87-10-25.05-22.13-31.06-38.62-5.18-14.21-11.39-28-16.52-42.26-8.31-23.06-21.23-42.74-40.84-57.64-23.46-17.83-49.94-26.39-79.47-24.79-3,.16-4.43-.52-5.77-3.21-6.88-13.77-25.09-21.26-39-16.29-16.67,6-25.58,23.06-21,40.59.59,2.22.11,3.31-1.55,4.63a115.54,115.54,0,0,0-27.67,32A121.72,121.72,0,0,0,92.9,225.6c-1.62,15.11-.62,30,4.13,44.37,5.47,16.54,11.78,32.82,18.21,49,5.58,14.07,9.45,28.31,8.42,43.63-.61,9.13-3,17.82-5.53,26.52-3.07,10.39-.46,19.5,7.35,26.89,8.16,7.71,18,11,28.93,8,8.85-2.48,17.4-6.07,26.45-9.3.62.91,1.21,1.82,1.84,2.69a39.83,39.83,0,0,0,25.12,16.5c26.14,5.25,53.37-14.71,50.77-44.66-.34-3.95,1-5.16,4.27-6.39,14.33-5.32,28.55-10.95,42.82-16.43s28.38-10.8,42.53-16.3c9.7-3.78,19.58-7.23,28.92-11.77,10.58-5.14,15.88-14.51,16.49-26.1C394.24,300.47,388.68,291.73,378.78,285.66Zm-209-178.37a21.42,21.42,0,0,1,20.15,13.29,77.17,77.17,0,0,0-41.59,17.34C142.47,122.75,152.79,107.36,169.78,107.29Zm62.85,313.59c-20.33,9.9-36.14,2-42.44-10.21l58.07-22.34C252.16,396.83,247.53,413.61,232.63,420.88ZM384.14,313.45c-.68,8.14-6,14.19-14.05,17.14-14.17,5.2-28.2,10.8-42.29,16.21q-28.29,10.86-56.59,21.71-28,10.75-55.92,21.58l-52.61,20.23c-3.65,1.41-7.24,3-11,4.19-7.48,2.34-14.05.48-19.44-5.13s-6.7-12.28-4.16-19.68c8.22-23.85,7.06-47.32-2.23-70.7-6.84-17.22-14-34.39-19.32-52.12-10.4-35-3.79-67.35,18.2-96.47a86.67,86.67,0,0,1,22.16-21.13,7.33,7.33,0,0,0,2.13-2.09,9.35,9.35,0,0,0,1.33-.94c2.31-1.95,4.59-3.95,7.05-5.69,20-14.17,47.69-14.62,71.24-10.88,23.77,3.78,44.89,16,61.73,33,11.52,11.58,18.73,25.88,24.36,41.07C319.69,217,325,230.19,329.9,243.48c7.39,19.93,20.39,35.35,37.61,47.43a44,44,0,0,0,5.51,2.83C380.11,297.36,384.8,305.67,384.14,313.45Z" style="fill:#686a6e"/></svg>