<svg id="Layer_1" data-name="Layer 1" xmlns="http://www.w3.org/2000/svg" viewBox="0 0 512 512"><path d="M150.48,440.93c0-28.06-.49-53.31.25-78.53.29-9.87-2.83-14-12.31-17.08C100.31,333,76.49,301,75.68,261.1q-1-49.77-.05-99.58c1-50.67,39.28-89.48,90-90.18q90.18-1.23,180.38,0c51.78.65,90.44,40.7,90.81,92.57q.33,46.9,0,93.82c-.37,52.47-39.79,91.87-92.29,92.66-24,.35-49.66-4.35-71.39,2.86-21.29,7.05-38.53,26.32-57.55,40.21ZM165,412.17c25.08-18.38,48.56-33.45,69.49-51.49,22.43-19.33,46.4-28.85,76-25,11.34,1.49,23.06.51,34.59.17,44.27-1.32,76.82-34.32,77.26-78.62.32-31.26.38-62.53,0-93.79-.56-43.48-33.11-77-76.65-77.56q-89.43-1.14-178.89,0c-44.5.5-76.4,33.79-76.76,78.56-.21,26.45,0,52.91,0,79.36,0,56.91,17.21,79,72,92.48.82.21,1.49,1,3,2.11Z" style="fill:#686a6e"/></svg>