<svg id="Layer_1" data-name="Layer 1" xmlns="http://www.w3.org/2000/svg" viewBox="0 0 512 512"><path d="M445.35,252.22c-.11,98.82-83.72,181.65-182.76,181C165,432.68,82.83,350.85,82.08,253.48,81.32,154.31,163.69,71.11,263,70.72,362.07,70.34,445.45,153.34,445.35,252.22ZM262.87,91.77C174.68,92.06,103.51,163,103.16,251A160,160,0,0,0,264.39,412.23c88.19-.43,159.52-71.51,159.87-159.29A160.26,160.26,0,0,0,262.87,91.77Z" style="fill:#686a6e"/><path d="M262.84,335.71c-11.62,0-23.24.19-34.85,0-38.23-.75-52.26-23.74-34.26-57,14.39-26.59,38.44-33.91,67.33-34.1,29.65-.2,55.93,4.71,71.83,32.49,19.62,34.27,5.09,58.06-35.19,58.62C286.08,335.84,274.46,335.71,262.84,335.71Z" style="fill:#686a6e"/><path d="M300.91,180.24c-.26,24.09-11.32,41.95-35.79,42.93s-37.52-15.79-38.38-40.06,9.93-41.24,35.55-42.12C287.65,140.13,299.79,155.59,300.91,180.24Z" style="fill:#686a6e"/><path d="M209.49,205c.18,17.11-7.56,30.74-24.83,31.74-17.6,1-26.56-12.1-27.36-29.24s6.66-30.44,24.81-31.27C200.08,175.44,209.09,187.06,209.49,205Z" style="fill:#686a6e"/><path d="M370.18,204.61c.24,17.17-7.3,30.87-24.57,32.11C328,238,318.92,225,318,207.87s6.25-30.49,24.43-31.57S369.33,186.89,370.18,204.61Z" style="fill:#686a6e"/><path d="M179,251.78c-3.14,18.8-14.28,31.81-13.29,48.25.55,9.26,3.66,23.26-13.8,20.66-12.92-1.92-21.21-11.2-20.39-23.9C133.32,269.51,147.76,253.9,179,251.78Z" style="fill:#686a6e"/><path d="M349.41,253.71c26.6-2.93,39,12.21,45.35,33,5.06,16.53-1.17,30.95-19.33,33.74-20.09,3.09-11.63-14.45-14.19-23.86C357.47,282.75,353.62,268.94,349.41,253.71Z" style="fill:#686a6e"/></svg>