<svg id="Layer_1" data-name="Layer 1" xmlns="http://www.w3.org/2000/svg" viewBox="0 0 512 512"><path d="M68.66,260.29C70.82,155.55,155.2,74.43,259.78,76.54s185.77,86.55,183.88,191.14c-1.88,104.16-87,186-191.25,183.78C147.7,449.27,66.5,364.8,68.66,260.29Z" style="fill:#4072b8"/><path d="M253.69,350.9c-15.41,0-30.85.63-46.22-.14-23.44-1.19-34.41-15.1-31.26-38.22,4.13-30.34,27.18-52.62,57.86-54.73a331,331,0,0,1,43.3-.07c31.59,2,56.64,26,58.93,56.83,1.59,21.37-6.93,35.77-30.6,36.25C288.37,351.17,271,350.89,253.69,350.9Z" style="fill:#fefeff"/><path d="M256.13,148.09c23.41,0,40.47,18.62,39.9,43.58-.55,24.28-19.5,44.12-41.28,43.23-20.71-.85-37.9-20.15-38.46-43.17C215.69,166.77,232.73,148.1,256.13,148.09Z" style="fill:#fbfcfe"/><path d="M202,214.67c-1.37,18.5-9.07,33.7-28.5,34.16s-28.3-13.39-28.71-32.53c-.38-18.17,7.9-30.79,26-32C190.54,183.06,199.66,196.4,202,214.67Z" style="fill:#f6f8fc"/><path d="M367.6,210.67c-.75,25.55-10,39.06-29.51,38.09s-28.16-16.53-27.46-34.54c.65-16.94,10.26-30.44,28.69-29.95C358.7,184.79,368.4,197.16,367.6,210.67Z" style="fill:#f7f9fd"/><path d="M167.24,274.33c-10.66,15.75-8,36.06-13.16,54.18-4.8,16.94-19.59,7.46-27.71.44-13.25-11.44-9.34-26.29-2.71-39.91,7.23-14.87,18.87-24.34,36.11-24.81C165.05,264.08,169.15,266.4,167.24,274.33Z" style="fill:#f1f5fb"/><path d="M394.7,307.81c-.73,15.24-7.51,26.42-23.41,28.16-19.61,2.15-13.16-13.8-14.94-23.85-1.34-7.56-3.48-15-4.08-22.65-.67-8.35-16.32-16.83-2.88-24.17,9.76-5.33,20.38,2.26,28.68,9.36C388.17,283.3,391.69,295.37,394.7,307.81Z" style="fill:#f1f5fb"/></svg>