<svg id="Layer_1" data-name="Layer 1" xmlns="http://www.w3.org/2000/svg" viewBox="0 0 512 512"><path d="M432.82,194.44H200.54c-8.22,0-11.11,3-11.11,11.34q0,58.48,0,117c0,7.65,3.17,10.86,10.78,10.86q51.32,0,102.63,0h8.08V437.79c-1.31.06-2.57.18-3.83.18H95.72C88.29,438,85,434.84,85,427.51q0-163.71,0-327.43c0-6.57,3.35-10,9.82-10q164,0,327.9,0c6.67,0,10.21,3.3,10.22,9.6q0,45.88,0,91.75C433,192.27,432.9,193.11,432.82,194.44Z" style="fill:#3f71b8"/><path d="M433,212.17V426c0,9.28-2.68,12-11.79,12h-92.6v-7.17q0-51.75,0-103.49c0-8.06-3-11.1-11-11.1q-51.75,0-103.51,0h-7.08v-104Z" style="fill:#3f71b8"/></svg>