<svg id="Layer_1" data-name="Layer 1" xmlns="http://www.w3.org/2000/svg" viewBox="0 0 512 512"><path d="M259.13,82H421.27c8.74,0,11.45,2.62,11.45,11.24q0,162.78,0,325.55c0,7.25-3.08,10.4-10.22,10.4q-163.2,0-326.39,0c-7.63,0-10.57-2.93-10.57-10.42q0-163.41,0-326.81c0-6.83,3.22-10,10.2-10H259.13Zm46.42,237.09H206.47c-8,0-10.86-2.93-10.86-11V203.49c0-8.72,2.68-11.44,11.3-11.44l202.79,0h5.8V99.22H102.68V412H305.55ZM415.62,209.28H212.88v92.86h98.56c8.37,0,11.2,2.8,11.2,11.1q0,47.2,0,94.41V412h93Z" style="fill:#686a6e"/></svg>