<svg id="Layer_1" data-name="Layer 1" xmlns="http://www.w3.org/2000/svg" viewBox="0 0 512 512"><path d="M438,232.17a184.33,184.33,0,0,1-124.45,198.7c-70.59,24.06-150.79,1.21-198.82-55.54A186,186,0,0,1,71.66,269a178.78,178.78,0,0,1,17-91.15C125.47,100.66,207,58.35,291.13,75.66c63.45,13,112.7,53.9,136.17,114.39A179.73,179.73,0,0,1,438,232.17ZM255.56,201.9c-.76-1.44-1.16-2.19-1.54-2.94-9.11-17.8-23.21-27.6-43.53-29.18-25.55-2-49.37,12.68-58.34,36.93-6.5,17.56-4.21,34.66,3.55,51,19.27,40.57,50.53,69.61,89.17,91.5,7.67,4.34,14,4.08,21.69-.09,23-12.53,42.91-28.85,60.33-48.26,13.36-14.88,24.74-31.1,31.47-50.15,6.53-18.48,6.55-36.71-4.16-53.72-12.36-19.63-30.27-28.76-53.71-27.15-19.83,1.36-33.84,10.95-42.87,28.36C257.07,199.26,256.46,200.29,255.56,201.9Z" style="fill:#ee314e"/></svg>