<svg id="Layer_1" data-name="Layer 1" xmlns="http://www.w3.org/2000/svg" viewBox="0 0 512 512"><path d="M351.61,418.1H318.25a31.22,31.22,0,0,1-11.6-2.1l-1.93-.8-4.31-3.58c-7.83-5.47-8.08-13.89-8.17-17.14-.09-2.5-.07-4.86,0-7.21,0-2.11-.05-4.21,0-6.32,0-2.29-.05-4.59,0-6.88,0-2.12-.05-4.23,0-6.35,0-2.29-.05-4.59,0-6.88,0-2.11-.05-4.23,0-6.34,0-2.3-.05-4.59,0-6.88,0-2.12-.05-4.24,0-6.35,0-2.29-.05-4.58,0-6.88,0-2.11-.05-4.22,0-6.33s-.05-4.44,0-6.66l-.86,0c-1.71,0-3.66,0-5.62,0-2.26.09-5,.09-7.61,0-1.68,0-3.64,0-5.61,0-2.26.1-5,.09-7.61,0-1.69,0-3.64,0-5.6,0-2.27.1-5,.09-7.62,0-1.67,0-3.64,0-5.6,0-2.27.1-5,.09-7.62,0-1.67,0-3.64,0-5.59,0l-1.83.05q.09,3.3,0,6.6c.06,2.12.06,4.22,0,6.33q.09,3.45,0,6.9.09,3.17,0,6.33.09,3.45,0,6.9.09,3.17,0,6.33.09,3.44,0,6.89.09,3.18,0,6.34.09,3.45,0,6.89c.05,2.12.06,4.23,0,6.35,0,2.35.06,4.7,0,7.06-.11,3.32-.35,11.39-7.61,16.85l-2.55,2.49-1.67.92a27.18,27.18,0,0,1-12.74,3.48H166.1l-1.87-.1a33.83,33.83,0,0,1-8.34-1.12l-3-.86-6-5.35c-11.44-8.29-7.57-31.95-7.57-44.72V267.86q-3,0-6,0h-.4c-2.07,0-4.13,0-6.2,0l-1.3-.07c-3.1-.16-10.18-.51-15.56-6.83l-4.66-4.73-1-2.78a23.87,23.87,0,0,1-.63-15.8,25.44,25.44,0,0,1,6.6-10.22L225.23,112.18q9.6-9.59,19.17-19.21a26.94,26.94,0,0,1,9.91-6.59l2.21-.81,3,0a28.63,28.63,0,0,1,11.61,1.68l2.12.84,4.74,4A42.94,42.94,0,0,1,285.78,99c.75.78,1.47,1.58,2.28,2.3l.86.82c1.34,1.41,2.73,2.77,4.12,4.13,2.61,2.65,5,5,7.41,7.41l1.44,1.43c1.59,1.66,3,3,4.37,4.38,2.62,2.68,5,5.08,7.46,7.48l1.38,1.37c1.59,1.66,3,3,4.38,4.38,2.6,2.65,5,5,7.4,7.42l1.44,1.42c1.59,1.66,3,3,4.37,4.38,2.63,2.68,5.05,5.08,7.46,7.48l1.39,1.37c1.59,1.66,3,3,4.37,4.38,2.58,2.63,4.95,5,7.32,7.33l1.52,1.51c1.6,1.66,3,3,4.38,4.39,2.6,2.65,5,5,7.37,7.38l1.47,1.46c1.59,1.66,3,3,4.38,4.39,2.56,2.6,4.92,4.95,7.28,7.3l1.56,1.54c1.59,1.66,3,3,4.38,4.39,2.54,2.59,4.89,4.92,7.24,7.25l1.6,1.58c1.59,1.67,3,3,4.38,4.4,3.07,3.12,6,6,8.85,8.85l.72.76a19.69,19.69,0,0,0,1.52,1.51,32.14,32.14,0,0,1,6.78,8.36l2.62,4.75.41,1.26a23.35,23.35,0,0,1-1.1,16.58l-.73,1.72-2,2.53c-4.85,7.71-12.87,8.78-16,9.2l-1.93.22c-2,.11-4,.09-6.07.07H391c-1.95.05-4.3.05-6.66,0h-.43c0,5,0,10,0,14.94,0,4.14,0,8.27,0,12.41q0,31.88,0,63.74l0,35.73c0,7.66-2.74,13.37-8.16,17l-6.17,5.08L357.9,418.1ZM301.76,293.7c1.19,0,2.38,0,3.57.1,6.91.54,14.22,5.62,14.51,15.56,0,1.26,0,2.46,0,3.66v2.69c-.06,1.63,0,3.26,0,4.9v1c0,2.1,0,4.18,0,6.27v.55c0,1.91,0,3.83,0,5.75v.53c0,2.13,0,4.26,0,6.39v.54c0,1.92,0,3.85,0,5.77v.53c0,2.13,0,4.26,0,6.39v.54c0,1.92,0,3.84,0,5.76v.54c0,2.12,0,4.26,0,6.39v.54c0,1.91,0,3.84,0,5.76v.53c0,2.11,0,4.23,0,6.34v.55q-.06,2.82,0,5.64v.5q0,1.51,0,3h36.52V359q0-31.91,0-63.8c0-4.09,0-8.17,0-12.26,0-9.16-.07-18.63.16-28l.05-2,.62-1.91a15.37,15.37,0,0,1,14.07-10.69c1.51,0,2.74,0,3.91,0,.94,0,1.89,0,2.84,0h.67c1.86.06,3.71,0,5.56,0h.5c1.08,0,2.14.05,3.21,0l0,0c-2.87-2.85-5.75-5.69-8.58-8.58-1.42-1.38-3-3-4.62-4.63l-1.34-1.32c-2.44-2.42-4.87-4.84-7.28-7.3-1.4-1.35-3-3-4.6-4.61l-1.29-1.27c-2.45-2.44-4.9-4.87-7.32-7.33-1.41-1.37-3-3-4.61-4.63L347,199.35c-2.48-2.46-5-4.92-7.41-7.42-1.39-1.35-3-3-4.59-4.61l-1.26-1.25c-2.47-2.44-4.93-4.88-7.36-7.36-1.4-1.36-3-3-4.6-4.62l-1.12-1.1c-2.51-2.49-5-5-7.5-7.51-1.39-1.35-3-3-4.6-4.61l-1.17-1.17c-2.49-2.47-5-4.94-7.44-7.44-1.4-1.36-3-3-4.61-4.62l-1.12-1.11c-2.51-2.49-5-5-7.49-7.5-1.39-1.35-3-3-4.6-4.62L281,133.25c-2.48-2.47-5-4.94-7.43-7.44-1.3-1.26-2.79-2.73-4.25-4.25-1.25-1.14-2.43-2.36-3.59-3.6a22.14,22.14,0,0,0-3-2.82l-.88-.52q-8.53,8.58-17.09,17.12L136.33,240.24l3.56,0h.49c1.82,0,3.64.05,5.45,0h1.28c.94,0,1.88,0,2.81,0,10.86-.52,14.87,7.34,15.85,9.79l.6,1.48.24,1.59a34.45,34.45,0,0,1,.31,5.91V390.45h36.49c0-1.05,0-2,0-3v-.79c.07-1.77.05-3.55,0-5.32v-.42l0-.43c.06-2,.05-4,0-6.05v-.82c.06-1.82.05-3.64,0-5.46v-.85q.09-3,0-6.06v-.85c.06-1.82.05-3.65,0-5.47v-.84q.09-3,0-6.07v-.85c.06-1.82.05-3.64,0-5.46v-.85q.09-3,0-6.07v-.84c.06-1.82.05-3.64,0-5.46v-.83c.05-2,.06-4,0-6l0-.38v-.37c0-1.72.06-3.43,0-5.15l0-.39V313c0-1.06,0-2.12,0-3.17a16.54,16.54,0,0,1,5-11.76,16.94,16.94,0,0,1,11.47-4.38c2.08,0,4.18,0,6.26,0s4.09.08,6,0c2.59-.05,4.85-.05,7.09,0s4.15.09,6.09,0c2.62,0,4.87-.05,7.13,0s4.15.09,6.09,0c2.62,0,4.87-.05,7.12,0s4.15.09,6.09,0c2.63,0,4.87-.05,7.13,0s4.15.09,6.09,0c2.61,0,4.86-.05,7.09,0s4.09.08,6,0l1.5,0Zm-151-53.43h0Z" style="fill:#686a6e"/></svg>