<svg width="18" height="18" viewBox="0 0 18 18" fill="none" xmlns="http://www.w3.org/2000/svg">
<path d="M18 10.8046C17.9995 10.5427 17.9486 10.2836 17.8503 10.0424C17.752 9.80119 17.6083 9.58274 17.4276 9.39984C17.6869 9.05865 17.8288 8.63732 17.8307 8.20286C17.8311 7.9483 17.7826 7.69619 17.6881 7.46127C17.5935 7.22635 17.4548 7.01331 17.28 6.83459C16.9085 6.44633 16.4038 6.22648 15.8763 6.22317H11.795L12.0579 4.45675C12.0908 4.23222 12.1073 4.00544 12.1074 3.77834C12.1074 2.03142 10.9699 0 9.50331 0C9.0781 0.000301818 8.66641 0.154964 8.33967 0.437152L8.18839 0.567747L8.40141 3.47093C8.41989 3.71743 8.36264 3.96368 8.23786 4.17436L5.99481 8.48568L5.911 8.5603C5.88338 8.367 5.78977 8.19041 5.64721 8.06264C5.50464 7.93487 5.32258 7.86441 5.13415 7.86408H0.785435C0.577192 7.86431 0.377538 7.95019 0.230287 8.1029C0.0830368 8.2556 0.00021647 8.46265 0 8.6786V17.1855C0.00021647 17.4014 0.0830368 17.6085 0.230287 17.7612C0.377538 17.9139 0.577192 17.9998 0.785435 18H5.13456C5.34259 17.9994 5.54193 17.9134 5.68891 17.7607C5.8359 17.6081 5.91855 17.4012 5.91877 17.1855V16.7568L5.9249 16.7619C6.72628 17.4687 7.76153 17.4768 7.80569 17.4768L14.3414 17.4742H14.3623C14.6398 17.4586 14.9105 17.3799 15.1554 17.2435C15.4002 17.1072 15.6131 16.9166 15.7789 16.6854C15.9447 16.4541 16.0594 16.1879 16.1148 15.9055C16.1702 15.6231 16.165 15.3315 16.0996 15.0514C16.5589 14.8463 16.9215 14.4612 17.1082 13.9801C17.295 13.4989 17.2907 12.9607 17.0964 12.4828C17.3735 12.3074 17.6023 12.0607 17.7606 11.7667C17.9189 11.4727 18.0014 11.1413 18 10.8046ZM5.15582 17.1855C5.15544 17.1912 5.15308 17.1966 5.14917 17.2006C5.14526 17.2047 5.14007 17.2071 5.13456 17.2075H0.785435C0.779965 17.2071 0.774825 17.2047 0.770985 17.2006C0.767145 17.1965 0.764868 17.1912 0.764583 17.1855V8.6786C0.764868 8.67292 0.767145 8.66755 0.770985 8.66348C0.774825 8.65942 0.779965 8.65696 0.785435 8.65655H5.13456C5.14007 8.65695 5.14526 8.6594 5.14917 8.66345C5.15308 8.6675 5.15544 8.67288 5.15582 8.6786V17.1855ZM16.4426 11.9248L15.9242 12.0923L16.2513 12.5417C16.3685 12.7023 16.4437 12.8915 16.4697 13.0911C16.4958 13.2906 16.4716 13.4938 16.3997 13.6808C16.3278 13.8679 16.2105 14.0325 16.0592 14.1588C15.9079 14.285 15.7277 14.3686 15.5361 14.4014L15.0177 14.4913L15.2602 14.9751C15.3466 15.148 15.3901 15.3404 15.3867 15.5351C15.3833 15.7297 15.333 15.9204 15.2406 16.0899C15.1481 16.2593 15.0163 16.4022 14.8572 16.5055C14.698 16.6087 14.5165 16.6692 14.3292 16.6813L7.80814 16.6843C7.78893 16.6843 7.00022 16.6682 6.42208 16.1581C6.3133 16.0588 6.19147 15.976 6.06023 15.9122L5.91877 15.8465V9.59573L6.59871 8.99279L8.89369 4.58311C9.09882 4.23244 9.19277 3.82389 9.16231 3.41496L8.98077 0.940026C9.13963 0.846218 9.31927 0.796833 9.50208 0.796711C10.4928 0.796711 11.342 2.43847 11.342 3.78215C11.3419 3.96867 11.3283 4.15492 11.3011 4.3393L10.9025 7.01903H15.878C16.2017 7.02191 16.5112 7.1574 16.739 7.39598C16.8424 7.50102 16.9246 7.62635 16.9807 7.76467C17.0369 7.90299 17.0659 8.05151 17.0661 8.20159C17.0651 8.38141 17.024 8.55855 16.946 8.71914C16.868 8.87972 16.7552 9.01939 16.6164 9.1272L16.1539 9.491L16.6589 9.78781C16.8511 9.90023 17.0074 10.0685 17.1085 10.2719C17.2096 10.4753 17.2511 10.7049 17.228 10.9324C17.2048 11.16 17.118 11.3756 16.9781 11.5526C16.8383 11.7296 16.6516 11.8603 16.441 11.9286L16.4426 11.9248Z" fill="#606770"/>
</svg>
