<svg id="Layer_1" data-name="Layer 1" xmlns="http://www.w3.org/2000/svg" viewBox="0 0 512 512"><path d="M447.51,240.21a179.54,179.54,0,0,0-10.68-42C413.4,137.79,364.24,97,300.91,84c-84-17.27-165.36,25-202.08,102a178.48,178.48,0,0,0-17,91,185.59,185.59,0,0,0,43,106.17c47.93,56.64,128,79.46,198.45,55.44A184,184,0,0,0,447.51,240.21Z" style="fill:#4b75ba"/><path d="M292.39,221.66c17,0,32.79.06,48.53,0,7.9,0,15.18,1.43,18.55,9.47s2,15.33-5.44,20.61c-2.62,1.86-2.41,2.56-.16,4.87,11.33,11.64,9.51,21-5.1,28.2,8.73,10.84,8.93,15.67-.32,24.85-2.63,2.62-1.57,4-.77,6.45,3.93,11.84-1.65,19.89-14.18,20-30.4.17-60.8-.07-91.2.14-8.73.06-12.24-3.67-12.13-12.26.24-19.41.69-38.85-.08-58.23-1.07-26.51,8.22-48.78,25.84-67.85,9.63-10.41,18.05-20.53,16.61-36.4-.77-8.37,5-14.79,14.24-15.4,8.85-.58,13.26,4.8,15.67,12.88,4.86,16.36,2.14,32-3.76,47.38C296.87,211.06,294.83,215.73,292.39,221.66Z" style="fill:#fff"/><path d="M216.94,298.1c0,12.91.08,25.83,0,38.75-.09,10.86-3.58,14.3-14.61,14.43q-13.56.17-27.12,0c-8.07-.12-12.57-3.81-12.53-12.46q.18-41.65,0-83.31c0-8.48,4.08-12.43,12.46-12.36,9.68.08,19.37,0,29.05,0,8.89,0,12.86,4.53,12.78,13.28C216.85,270.32,216.94,284.21,216.94,298.1Z" style="fill:#fff"/></svg>