<svg id="Layer_1" data-name="Layer 1" xmlns="http://www.w3.org/2000/svg" viewBox="0 0 512 512"><path d="M303.93,81.86,464,238.55,304.05,394.26V306.83c-23.39,3.23-45.31,4.54-66.36,9.51C183.11,329.22,136.79,357.61,96,395.65c-4.41,4.11-11,5.91-16.55,8.79-.74-6.62-3.29-13.61-2-19.78C101.69,271.47,175.57,207,283.39,176.49c20.4-5.78,20.54-5.3,20.54-27ZM320.55,122c0,17.76-.26,35.31.12,52.84.18,7.82-1.26,11.66-10.48,13.08-52.41,8.11-99.34,29-139.53,63.87-35.71,31-59.22,69.75-71.95,115.42,1.55.35,2.06.63,2.26.48q7.55-5.48,15-11.05c56.35-41.95,118.57-66.4,189.88-64.75,10.85.25,15.48,3,14.75,14.85-1,16.83-.27,33.77-.27,47.58L438.94,239Z" style="fill:#686a6e"/></svg>