<svg id="Layer_1" data-name="Layer 1" xmlns="http://www.w3.org/2000/svg" viewBox="0 0 512 512"><path d="M251.32,77.56c42.76,0,85.51.31,128.26-.24,10.05-.13,15.14,3.38,18.94,12.39,8.38,19.92,16.77,40,27,59C435.87,168,439,188,438,209.54c-1.09,22.87-10.68,39.81-32.25,47.88-9.37,3.51-11.44,8.52-11.36,17.55.35,43.25.23,86.5.06,129.75-.09,24.14-6.93,30.8-31.32,30.82q-111.63.09-223.26,0c-23.81,0-31.15-7.43-31.17-31.18,0-43.27-.19-86.55.17-129.83.07-9-2.21-13.8-11.51-17.35-20.74-7.92-30.62-24.05-31.54-46.59s2-43.68,13.16-63.94c9.64-17.51,17.58-36,25-54.62,4.34-10.86,10.24-15,22.23-14.75C167.92,78,209.63,77.56,251.32,77.56ZM199.79,420.13c.42-5.34.93-8.9.94-12.46.08-26.37-.1-52.74.12-79.1.18-21.28,7.62-28.66,28.48-28.9,10.54-.11,21.09,0,31.64,0,38.35,0,42.69,4.3,42.53,42.25,0,2.1-.53,4.2-.54,6.3,0,23.56,0,47.13,0,72,21,0,40-.79,58.85.27,13.85.78,18.46-3.85,18.21-17.81-.72-41.64-.18-83.31-.25-125,0-20.06-18.06-31.78-36.19-22.87-16.5,8.12-32,7.73-48.52,0-5.2-2.44-13.54-2.53-18.65,0-16.54,8.08-32.08,8-48.59.2-5-2.36-12.89-3.58-17.3-1.25-18,9.49-34.77,9.61-52.64-.19-11.62-6.37-33.67,5.06-33.74,16.89-.28,45.88-.36,91.76.26,137.63.06,4.07,5.54,11.41,8.77,11.56C155.09,420.62,177.09,420.13,199.79,420.13Zm218.42-250.7c-11.47-25.11-21.59-48.19-32.79-70.74-1.66-3.34-8.41-5.85-12.82-5.87q-121.12-.51-242.26,0c-4.06,0-10.37,2.1-11.82,5.08-11.22,23.07-21.5,46.6-32.78,71.56ZM80.61,185.91c0,8.27-.2,15,0,21.76,1.15,33.11,25.83,46.72,56.1,32.74,7.71-3.56,19.73-3,27.74.42,13.78,5.9,25.12,6.38,39.07,0,8.18-3.73,20.71-3.45,29.11.13,14,5.95,25.32,5.82,39.11-.4,7.83-3.53,19.86-3.56,27.68,0,14.38,6.49,26.39,6.71,40.58-.27,7-3.42,18-4,25-.92,35.76,15.53,57.57,1.66,58.18-37.39.2-12.9-3.23-17.16-16.71-17.09-103.51.54-207,.29-310.53.33C91.81,185.2,87.62,185.58,80.61,185.91ZM215.73,419h72.06c0-31.66,0-62.07,0-92.48,0-8.85-5-11.64-13.28-11.47q-22.86.47-45.75,0c-8.25-.15-13.08,2.49-13.05,11.53C215.79,357,215.73,387.37,215.73,419Z" style="fill:#686a6e"/></svg>