<svg id="Layer_1" data-name="Layer 1" xmlns="http://www.w3.org/2000/svg" viewBox="0 0 512 512"><path d="M274.54,384.33c-35.15,0-70.33.86-105.44-.22-40.15-1.23-60.11-21.3-60.7-61-.78-52-.92-104,.08-156,.69-35.92,20.39-57.3,56.05-58Q275.38,106.9,386.3,109c36.1.63,56.2,21.49,56.94,57.13q1.68,79.8,0,159.66c-.72,37.13-21.36,57.1-59.67,58.33C347.29,385.24,310.9,384.33,274.54,384.33Zm2.64-20.54c34,0,68,.52,101.95-.17,27-.54,43-12.51,42.61-42.24-.73-49.65-.84-99.34,0-149,.52-29.36-14.38-42.88-41.66-43.16q-103.75-1-207.55-.07c-29.42.24-43.55,15.1-42.7,45.88,1.3,47.21,1.43,94.51,0,141.71-1,32.87,14.4,46.82,45.39,47C209.21,364,243.2,363.85,277.18,363.79Z" style="fill:#686a6e"/><path d="M275,434.74c-24.08,0-48.15.25-72.22-.19-5.87-.11-12.45-2.36-12.48-10s6.6-9.94,12.44-10q72.22-.6,144.46-.23c7.14,0,15.51,2.24,14.11,11.94-1,6.63-8,8.48-14.07,8.54-24.08.24-48.16.1-72.24.1Z" style="fill:#686a6e"/><path d="M234.83,294.35l.93-103.76a1.45,1.45,0,0,1,2.19-1.24L327.35,242a1.45,1.45,0,0,1,0,2.52L237,295.63A1.46,1.46,0,0,1,234.83,294.35Z" style="fill:#686a6e"/></svg>