<svg id="Layer_1" data-name="Layer 1" xmlns="http://www.w3.org/2000/svg" viewBox="0 0 512 512"><path d="M268.35,100.31c35.87.32,71.75.38,107.61,1,36.73.66,58.4,20.23,59.08,57.27q1.51,81.38-1.44,162.83c-1.26,35-22.39,55-58.33,55.19q-110.49.66-221-2.08c-35.36-.9-55.7-21.92-56.24-57.25q-1.23-80,1.38-159.93c1.24-38.61,23-58,61.32-58C196.61,99.46,232.48,100,268.35,100.31Z" style="fill:#3f71b8"/><path d="M268.16,407.4c22.25,0,44.5-.19,66.74.09,7.4.09,17.57-1.19,17.49,9.77-.05,7.67-7.89,10.15-15.22,10.15q-71.09,0-142.17-.12c-7.19,0-14.61-2.29-14.56-10.66.06-9.27,8.61-9.05,15.18-9.12C219.8,407.26,244,407.41,268.16,407.4Z" style="fill:#3f71b8"/><path d="M221.87,281.68l.92-103.76a1.46,1.46,0,0,1,2.19-1.25l89.4,52.69a1.45,1.45,0,0,1,0,2.52L224,283A1.45,1.45,0,0,1,221.87,281.68Z" style="fill:#fff"/></svg>